<svg width="19" height="19" viewBox="0 0 19 19" fill="none" xmlns="http://www.w3.org/2000/svg">
<path d="M18.5239 11.0558C18.5239 10.7426 18.2699 10.4886 17.9567 10.4886H16.8215V2.75501C16.8215 1.23589 15.5855 0 14.0664 0C12.5473 0 11.3114 1.23589 11.3114 2.75501V3.78902C11.3114 4.10226 11.5654 4.35624 11.8786 4.35624C12.1919 4.35624 12.4458 4.10226 12.4458 3.78902V2.75501C12.4458 1.86141 13.1728 1.13444 14.0664 1.13444C14.96 1.13444 15.687 1.86141 15.687 2.75501V10.4886H0.567218C0.253977 10.4886 0 10.7426 0 11.0558C0 13.6158 1.61912 15.8044 3.88699 16.6522C3.45073 17.1108 3.18091 17.7397 3.18091 18.4328C3.18091 18.746 3.43489 19 3.74813 19C4.06137 19 4.31535 18.746 4.31535 18.4328C4.31535 17.6583 4.90632 17.0282 5.63277 17.0282C5.65945 17.0282 12.8645 17.0282 12.8912 17.0282C13.6176 17.0282 14.2086 17.6583 14.2086 18.4328C14.2086 18.746 14.4626 19 14.7758 19C15.0891 19 15.3431 18.746 15.3431 18.4328C15.3431 17.7397 15.0732 17.1108 14.637 16.6522C16.9048 15.8044 18.5239 13.6158 18.5239 11.0558ZM12.5515 15.8938H5.9724C3.49653 15.8938 1.44912 14.0245 1.1675 11.6231H17.3564C17.0748 14.0245 15.0273 15.8938 12.5515 15.8938Z" fill="#696969"/>
</svg>
